<?xml version="1.0" encoding="UTF-8" standalone="no"?>
<svg
   xmlns:dc="http://purl.org/dc/elements/1.1/"
   xmlns:cc="http://creativecommons.org/ns#"
   xmlns:rdf="http://www.w3.org/1999/02/22-rdf-syntax-ns#"
   xmlns:svg="http://www.w3.org/2000/svg"
   xmlns="http://www.w3.org/2000/svg"
   width="85.087265"
   height="111.09365"
   viewBox="0 0 85.087265 111.09365"
   fill="none"
   version="1.1"
   id="svg3651">
  <metadata
     id="metadata3657">
    <rdf:RDF>
      <cc:Work
         rdf:about="">
        <dc:format>image/svg+xml</dc:format>
        <dc:type
           rdf:resource="http://purl.org/dc/dcmitype/StillImage" />
        <dc:title></dc:title>
      </cc:Work>
    </rdf:RDF>
  </metadata>
  <defs
     id="defs3655" />
  <path
     d="m 51.245054,12.213213 c -0.8577,-3.2008002 1.0418,-6.4909002 4.2426,-7.3485002 l 17.3865,-4.65879996 c 3.201,-0.8576 6.491,1.04189996 7.349,4.24269996 l 4.658,17.3866002 c 0.858,3.2008 -1.041,6.4909 -4.242,7.3485 l -17.3869,4.6588 c -3.2008,0.8576 -6.4909,-1.0419 -7.3485,-4.2427 z"
     fill="#f9c20a"
     id="path3643" />
  <path
     d="m 0.2059541,95.053613 c -0.8577,-3.2 1.0418,-6.49 4.2426,-7.348 l 11.5910999,-3.106 c 3.2008,-0.858 6.4909,1.042 7.3485,4.243 l 3.1058,11.590997 c 0.8577,3.201 -1.0418,6.491 -4.2426,7.348 l -11.5911,3.106 c -3.2007999,0.858 -6.4907999,-1.042 -7.3484999,-4.243 z"
     fill="#faa61a"
     id="path3645" />
  <path
     fill-rule="evenodd"
     clip-rule="evenodd"
     d="m 23.999854,102.34461 31.9152,2.792 c 7.3616,0.644 12.2721,-3.35 12.8961,-10.482997 l 0.14,-1.603 -5.6235,-0.492 -0.0683,0.78 c -0.3921,4.481 -2.92,6.518 -7.4924,6.118 l -30.6349,-2.68 c -4.5724,-0.4 -6.6626,-2.841 -6.2705,-7.322 l 5.8206,-66.5294 -5.6698,-0.4961 -5.8926,67.3525 c -0.624,7.133 3.5186,11.918997 10.8801,12.562997 z m 39.7633,-14.766997 5.573,-63.693 c 0.388,-4.4352 -1.748,-6.8797 -6.3206,-7.2797 l -1.6918,-0.1481 -0.16,1.829 c -0.148,1.6918 -1.3494,2.7846 -3.0412,2.6366 l -21.6273,-1.8922 c -1.6918,-0.148 -2.6852,-1.4328 -2.5371,-3.1246 l 0.16,-1.8289 -1.7375,-0.1521 c -3.8015,-0.3325 -6.1581,1.0218 -7.0678,4.0367 l -5.8142,-0.5087 c 1.0723,-6.3354 5.8268,-9.8583002 12.7379,-9.2537002 l 31.9156,2.7922002 c 7.361,0.6441 11.5,5.4753 10.876,12.6082 l -5.641,64.4703 z m -34.8263,6.26 23.6391,2.068 c 1.0517,0.092 1.8473,-0.575 1.9393,-1.627 0.096,-1.097 -0.5716,-1.893 -1.6232,-1.985 l -23.6392,-2.068 c -1.0517,-0.092 -1.8473,0.576 -1.9433,1.673 -0.092,1.052 0.5756,1.847 1.6273,1.939 z"
     fill="#231f20"
     id="path3647" />
  <path
     fill-rule="evenodd"
     clip-rule="evenodd"
     d="m 49.893554,58.852913 -0.2988,3.4155 -11.2542,-0.9846 c -0.9937,-0.0911 -1.913,-0.5654 -2.5631,-1.3225 -0.65,-0.7571 -0.9798,-1.7375 -0.9195,-2.7336 l 0.2107,-2.408 c 0.0437,-0.4993 0.1855,-0.985 0.4175,-1.4294 0.2319,-0.4443 0.5493,-0.8384 0.934,-1.1597 0.3847,-0.3214 0.829,-0.5635 1.3076,-0.7126 0.4785,-0.1491 0.9818,-0.2022 1.4809,-0.1563 l 11.2712,0.9861 c 0.4529,0.0396 0.8716,0.2575 1.1638,0.6058 0.2923,0.3483 0.4342,0.7984 0.3946,1.2514 -0.0397,0.4529 -0.2576,0.8715 -0.6059,1.1638 -0.3483,0.2922 -0.7984,0.4341 -1.2513,0.3945 l -12.1934,-1.0668 -0.2705,3.0911 z m -10.0768,-14.4418 11.8518,1.0369 c 2.261,0.3351 4.3137,1.507 5.7517,3.2836 1.438,1.7767 2.1565,4.0285 2.0132,6.3097 -0.1923,1.7518 -0.8815,3.4121 -1.9865,4.7851 -1.1049,1.373 -2.5795,2.4013 -4.2497,2.9637 l -3.3037,-3.9372 c 0.6275,0.071 1.263,0.0156 1.8688,-0.1629 0.6058,-0.1785 1.1698,-0.4764 1.6586,-0.8763 0.4889,-0.3999 0.8927,-0.8936 1.1878,-1.452 0.295,-0.5584 0.4753,-1.1702 0.5301,-1.7994 0.0881,-1.2658 -0.3267,-2.5152 -1.1544,-3.4769 -0.8277,-0.9617 -2.0014,-1.558 -3.2662,-1.6594 l -11.2541,-0.9846 c -1.78,-0.1557 -3.549,0.402 -4.9178,1.5506 -1.3687,1.1485 -2.2252,2.7937 -2.3809,4.5737 l -0.2107,2.408 c -0.1557,1.78 0.402,3.549 1.5506,4.9177 1.1485,1.3688 2.7937,2.2252 4.5737,2.381 l 11.2713,0.9861 -0.3541,4.0474 -11.2713,-0.9861 c -2.85,-0.2539 -5.4829,-1.6285 -7.3204,-3.8219 -1.8375,-2.1934 -2.7295,-5.0263 -2.4801,-7.8768 l 0.2107,-2.408 c 0.2536,-2.8471 1.6256,-5.4776 3.8153,-7.3149 2.1896,-1.8373 5.0184,-2.7317 7.8663,-2.4871 z"
     fill="#faa61a"
     id="path3649" />
</svg>
