<svg width="147" height="40" viewBox="0 0 147 40" fill="none" xmlns="http://www.w3.org/2000/svg">
<path fill-rule="evenodd" clip-rule="evenodd" d="M27.801 16.8737V21.1563H13.6897C12.4432 21.1512 11.2477 20.6611 10.3563 19.7897C9.465 18.9184 8.94787 17.7343 8.91449 16.4882V13.469C8.91449 12.8429 9.03815 12.223 9.27839 11.6448C9.51862 11.0667 9.8707 10.5417 10.3144 10.0999C10.7581 9.65824 11.2847 9.30853 11.8639 9.0709C12.4431 8.83326 13.0636 8.71238 13.6897 8.7152H27.8224C28.3903 8.7152 28.935 8.94081 29.3366 9.34238C29.7381 9.74396 29.9637 10.2886 29.9637 10.8565C29.9637 11.4244 29.7381 11.9691 29.3366 12.3707C28.935 12.7723 28.3903 12.9979 27.8224 12.9979H12.5333V16.8737H27.801ZM13.6897 0H28.5505C31.4004 0.170873 34.0823 1.40565 36.0651 3.45985C38.0479 5.51404 39.1871 8.23789 39.2571 11.0921C39.2086 13.2929 38.5316 15.434 37.3061 17.2627C36.0807 19.0915 34.3577 20.5316 32.3406 21.4133L27.801 16.8737C28.5896 16.8937 29.3743 16.7556 30.1087 16.4675C30.8432 16.1795 31.5125 15.7474 32.0773 15.1965C32.6421 14.6457 33.0908 13.9874 33.3972 13.2604C33.7035 12.5335 33.8612 11.7525 33.861 10.9636C33.8328 9.37894 33.1806 7.86939 32.0459 6.76281C30.9113 5.65623 29.3859 5.042 27.801 5.05353H13.6897C11.4577 5.05353 9.31725 5.94015 7.73905 7.51835C6.16086 9.09655 5.27424 11.237 5.27424 13.469V16.4882C5.27424 18.7201 6.16086 20.8606 7.73905 22.4388C9.31725 24.017 11.4577 24.9036 13.6897 24.9036H27.8224V29.9786H13.6897C10.1155 29.9729 6.68967 28.5491 4.16437 26.0198C1.63906 23.4905 0.220699 20.0624 0.220703 16.4882L0.220703 13.469C0.226366 9.8985 1.64723 6.47591 4.17192 3.95122C6.69661 1.42653 10.1192 0.0056629 13.6897 0V0Z" fill="#FAA61A"/>
<path fill-rule="evenodd" clip-rule="evenodd" d="M33.5185 28.8865H38.7647C38.7647 27.045 37.8868 26.0814 36.2166 26.0814C34.5463 26.0814 33.6684 26.8737 33.4114 28.8865H33.5185ZM40.3065 35.1178C39.152 35.5927 37.9145 35.8329 36.6662 35.8244C33.3686 35.8244 31.4414 34.561 31.4414 30.1713C31.4414 26.4026 33.1973 24.4325 36.345 24.4325C36.9743 24.3872 37.6059 24.4814 38.1945 24.7084C38.7831 24.9355 39.3143 25.2898 39.7501 25.746C40.1858 26.2023 40.5154 26.7491 40.7153 27.3476C40.9151 27.946 40.9803 28.5812 40.9061 29.2077C40.8929 29.6171 40.85 30.0251 40.7776 30.4283H33.4757C33.4757 33.4904 34.8247 34.1542 36.8161 34.1542C37.8822 34.1269 38.9372 33.9318 39.9425 33.576L40.3065 35.1178Z" fill="#232021"/>
<path fill-rule="evenodd" clip-rule="evenodd" d="M49.5141 35.6103L46.6661 31.5203L43.861 35.6103H41.3984L45.574 30L41.634 24.6467H44.0751L46.7946 28.5867L49.4284 24.6467H51.8053L47.8438 30L51.9766 35.6103H49.5141Z" fill="#232021"/>
<path fill-rule="evenodd" clip-rule="evenodd" d="M55.3171 26.531V33.8972C56.1061 34.1078 56.9203 34.2087 57.7368 34.197C60.0923 34.197 60.7133 32.3983 60.7133 29.9143C60.7133 27.9443 60.3706 26.0171 57.9509 26.0171C57.0553 26.012 56.165 26.1567 55.3171 26.4454V26.531ZM55.3171 40H53.1758V24.6467H55.3171V25.3961C56.2294 24.7326 57.3375 24.3934 58.4649 24.4325C61.6554 24.4325 62.7475 27.0664 62.7475 29.9143C62.7475 33.212 61.3985 35.8244 57.9295 35.8244C56.996 35.8293 56.076 35.6011 55.2529 35.1606L55.3171 40Z" fill="#232021"/>
<path fill-rule="evenodd" clip-rule="evenodd" d="M69.9206 26.2741C68.6842 26.2202 67.4489 26.4019 66.2804 26.8094V35.6317H64.2461V24.6467H66.2589V25.4818H66.3874C67.4022 24.7379 68.6427 24.3672 69.8992 24.4325L69.9206 26.2741Z" fill="#232021"/>
<path fill-rule="evenodd" clip-rule="evenodd" d="M72.5978 28.8865H77.9511C77.9511 27.045 77.0732 26.0814 75.4029 26.0814C73.7327 26.0814 72.8548 26.8737 72.5978 28.8865ZM79.4501 35.1178C78.2954 35.5921 77.058 35.8323 75.8098 35.8244C72.5122 35.8244 70.585 34.561 70.585 30.1713C70.585 26.4026 72.3409 24.4325 75.4886 24.4325C76.1236 24.3622 76.7662 24.4393 77.3666 24.6577C77.9669 24.8762 78.5088 25.2302 78.9501 25.6921C79.3913 26.1541 79.7201 26.7117 79.9108 27.3214C80.1015 27.9311 80.149 28.5766 80.0496 29.2077C80.0368 29.6172 79.9939 30.0251 79.9211 30.4283H72.555C72.555 33.4904 73.904 34.1542 75.8955 34.1542C76.9543 34.125 78.002 33.9299 79.0004 33.576L79.4501 35.1178Z" fill="#232021"/>
<path fill-rule="evenodd" clip-rule="evenodd" d="M82.0192 33.5332C83.0288 33.9061 84.0914 34.1157 85.167 34.1542C86.5374 34.1542 87.6295 33.7045 87.6295 32.6124C87.6295 31.5203 86.3875 31.0707 84.9957 30.7281C83.2398 30.3426 81.698 29.5503 81.698 27.5375C81.698 25.5246 83.3683 24.4326 85.9807 24.4326C87.0508 24.4855 88.1093 24.6799 89.1284 25.0107L88.743 26.7238C87.833 26.3385 86.861 26.1209 85.8736 26.0814C84.5246 26.0814 83.7323 26.5739 83.7323 27.4304C83.7323 28.2869 85.0599 28.8223 86.2376 29.1435C87.9935 29.636 89.6209 30.1927 89.6209 32.4411C89.6209 34.6895 87.6509 35.8244 85.0599 35.8244C83.897 35.7877 82.7444 35.5932 81.6338 35.2463L82.0192 33.5332Z" fill="#232021"/>
<path fill-rule="evenodd" clip-rule="evenodd" d="M91.5487 33.5332C92.5649 33.9087 93.635 34.1184 94.7178 34.1542C96.0669 34.1542 97.1804 33.7045 97.1804 32.6124C97.1804 31.5203 95.9598 31.0707 94.5465 30.7281C92.7906 30.3426 91.2489 29.5503 91.2489 27.5375C91.2489 25.5246 92.9191 24.4326 95.5315 24.4326C96.6016 24.4865 97.6599 24.6809 98.6793 25.0107L98.2938 26.7238C97.3892 26.3484 96.4247 26.1381 95.4459 26.1028C94.0754 26.1028 93.3046 26.5953 93.3046 27.4518C93.3046 28.3084 94.6108 28.8437 95.8099 29.1649C97.5658 29.6574 99.1932 30.2141 99.1932 32.4625C99.1932 34.7109 97.2232 35.8458 94.6322 35.8458C93.4692 35.8091 92.3166 35.6146 91.2061 35.2677L91.5487 33.5332Z" fill="#232021"/>
<path fill-rule="evenodd" clip-rule="evenodd" d="M103.005 26.5311V33.8972C103.699 34.1122 104.419 34.2346 105.146 34.2613C107.651 34.2613 108.294 32.4625 108.294 29.9786C108.294 28.0086 107.994 26.0814 105.36 26.0814C104.52 26.0767 103.686 26.2217 102.898 26.5097L103.005 26.5311ZM100.863 20.257L103.005 20.0428V25.3533C103.93 24.739 105.02 24.4181 106.131 24.4326C109.279 24.4326 110.414 27.0664 110.414 29.9144C110.414 33.212 108.915 35.8244 105.274 35.8244C103.769 35.753 102.282 35.4571 100.863 34.9465V20.257Z" fill="#232021"/>
<path fill-rule="evenodd" clip-rule="evenodd" d="M118.722 31.2206H115.574C114.161 31.2206 113.904 31.9272 113.904 32.6767C113.904 33.8116 114.46 34.1756 115.531 34.1756C116.607 34.1391 117.677 33.9884 118.722 33.7259V31.2206ZM118.722 29.8715V28.3726C118.722 26.788 117.972 26.1028 116.216 26.1028C115.141 26.1058 114.075 26.3016 113.069 26.681L112.769 25.0964C113.983 24.6275 115.279 24.4019 116.58 24.4326C119.086 24.4326 120.863 25.3962 120.863 28.03V34.0899H122.276V35.3105C121.612 35.6487 120.88 35.8317 120.135 35.8458C119.811 35.8865 119.483 35.8064 119.215 35.6207C118.946 35.435 118.755 35.1569 118.679 34.8394C117.659 35.5008 116.468 35.8505 115.253 35.8458C114.818 35.9064 114.375 35.8702 113.956 35.7396C113.537 35.6091 113.152 35.3876 112.829 35.0908C112.506 34.7941 112.252 34.4296 112.086 34.0233C111.92 33.6171 111.846 33.1791 111.869 32.7409C111.869 30.4497 113.283 29.5717 115.681 29.5717C116.695 29.5717 117.706 29.6722 118.7 29.8715H118.722Z" fill="#232021"/>
<path fill-rule="evenodd" clip-rule="evenodd" d="M126.067 26.7452V35.6103H124.054V24.6467H126.067V25.4818H126.195C127.217 24.7852 128.428 24.4189 129.664 24.4326C130.147 24.3751 130.636 24.4294 131.094 24.5912C131.552 24.753 131.967 25.018 132.307 25.3657C132.646 25.7135 132.901 26.1346 133.052 26.5966C133.202 27.0585 133.245 27.549 133.176 28.03V35.6103H131.163V28.5868C131.163 27.1735 130.777 26.0814 129.022 26.0814C127.996 26.1089 126.985 26.3343 126.045 26.7452H126.067Z" fill="#232021"/>
<path fill-rule="evenodd" clip-rule="evenodd" d="M137.93 28.9936H139.921L143.24 24.6467H145.617L141.677 29.6788L146.281 35.6103H143.776L139.964 30.6424H137.93V35.6103H135.917V20.257L137.93 20.0428V28.9936Z" fill="#232021"/>
</svg>
