<svg width="18" height="22" viewBox="0 0 18 22" fill="none" xmlns="http://www.w3.org/2000/svg">
<path d="M16.4596 9.5C16.4596 12.016 14.8965 14.6195 13.01 16.6874C12.0858 17.7005 11.1304 18.5334 10.3494 19.1046C9.95759 19.3912 9.62622 19.5998 9.37793 19.731C9.31137 19.7661 9.25534 19.7933 9.20957 19.8138C9.1638 19.7933 9.10777 19.7661 9.04121 19.731C8.79292 19.5998 8.46155 19.3912 8.06977 19.1046C7.28879 18.5334 6.3333 17.7005 5.40915 16.6874C3.52262 14.6195 1.95957 12.016 1.95957 9.5C1.95957 5.42791 5.21823 2.15 9.20957 2.15C13.2009 2.15 16.4596 5.42791 16.4596 9.5ZM9.20957 21.15C9.30981 21.15 9.42715 21.1216 9.55219 21.0769C9.67956 21.0313 9.82516 20.965 9.9851 20.8805C10.3051 20.7115 10.6911 20.4653 11.1169 20.1539C11.9688 19.5307 12.9888 18.6396 13.9704 17.5636C15.9287 15.417 17.7596 12.5066 17.7596 9.5C17.7596 4.72442 13.9333 0.85 9.20957 0.85C4.48587 0.85 0.65957 4.72442 0.65957 9.5C0.65957 12.5066 2.49048 15.417 4.44876 17.5636C5.43039 18.6396 6.45032 19.5307 7.30226 20.1539C7.72806 20.4653 8.11405 20.7115 8.43404 20.8805C8.59398 20.965 8.73958 21.0313 8.86695 21.0769C8.99199 21.1216 9.10933 21.15 9.20957 21.15ZM11.6588 9.4C11.6588 10.7531 10.5619 11.85 9.20877 11.85C7.85567 11.85 6.75876 10.7531 6.75876 9.4C6.75876 8.0469 7.85567 6.95 9.20877 6.95C10.5619 6.95 11.6588 8.0469 11.6588 9.4ZM9.20877 13.15C11.2798 13.15 12.9588 11.4711 12.9588 9.4C12.9588 7.32893 11.2798 5.65 9.20877 5.65C7.1377 5.65 5.45876 7.32893 5.45876 9.4C5.45876 11.4711 7.1377 13.15 9.20877 13.15Z" fill="#FAA61A" stroke="#FAA61A" stroke-width="0.3"/>
</svg>
