<svg width="19" height="19" viewBox="0 0 19 19" fill="none" xmlns="http://www.w3.org/2000/svg">
<path d="M7.78789 14.8594C9.58333 14.8594 11.2287 14.2154 12.5052 13.1461L17.5092 18.1501C17.7631 18.404 18.1746 18.404 18.4285 18.1501C18.6823 17.8963 18.6823 17.4847 18.4285 17.2309L13.4244 12.2269C14.4939 10.9504 15.1379 9.30491 15.1379 7.50939C15.1379 3.45009 11.8472 0.159387 7.78789 0.159387C3.7286 0.159387 0.437891 3.45009 0.437891 7.50939C0.437891 11.5687 3.7286 14.8594 7.78789 14.8594ZM13.8379 7.50939C13.8379 10.8507 11.1292 13.5594 7.78789 13.5594C4.44657 13.5594 1.73789 10.8507 1.73789 7.50939C1.73789 4.16806 4.44657 1.45939 7.78789 1.45939C11.1292 1.45939 13.8379 4.16806 13.8379 7.50939Z" fill="#FAA61A" stroke="#FAA61A" stroke-width="0.3"/>
</svg>
